<svg width="68" height="68" viewBox="0 0 68 68" fill="none" xmlns="http://www.w3.org/2000/svg">
<path d="M34 68C52.7777 68 68 52.7777 68 34C68 15.2223 52.7777 0 34 0C15.2223 0 0 15.2223 0 34C0 52.7777 15.2223 68 34 68Z" fill="white"/>
<path d="M44.1248 55.1511C43.9381 54.6487 43.6753 54.2513 43.3363 53.9591C42.9973 53.6669 42.6028 53.4892 42.1526 53.426C41.6977 53.3731 41.2078 53.4441 40.6828 53.6392C40.1504 53.837 39.7329 54.103 39.4304 54.4373C39.1306 54.779 38.9478 55.1713 38.8818 55.614C38.8158 56.0566 38.8762 56.5292 39.0628 57.0317L40.8514 61.8462L39.3666 62.3978L37.5571 57.527C37.2813 56.7846 37.2076 56.0695 37.3361 55.3817C37.4675 54.7014 37.7746 54.0923 38.2575 53.5545C38.7432 53.0241 39.3873 52.6099 40.1897 52.3118C40.9846 52.0165 41.7429 51.9097 42.4646 51.9915C43.1815 52.0836 43.8118 52.3445 44.3554 52.774C44.9018 53.2111 45.313 53.8008 45.5888 54.5433L47.3982 59.414L45.9134 59.9656L44.1248 55.1511Z" fill="#0077FF"/>
<path d="M30.7784 62.295C30.1074 62.2589 29.5346 62.1079 29.0602 61.8421C28.5779 61.5758 28.2165 61.2198 27.9761 60.7743C27.7272 60.3363 27.6179 59.8377 27.6479 59.2785C27.678 58.7193 27.8405 58.2313 28.1353 57.8145C28.4217 57.4053 28.819 57.0942 29.3272 56.8812C29.8274 56.6678 30.413 56.5791 31.084 56.6152L35.1222 56.8325L35.0487 58.1986L31.0704 57.9845C30.5272 57.9553 30.0967 58.0643 29.779 58.3116C29.4532 58.5584 29.2781 58.9095 29.2536 59.3649C29.2291 59.8202 29.3656 60.1881 29.6629 60.4685C29.9523 60.7484 30.3686 60.903 30.9118 60.9322L34.7343 61.1379L33.9847 61.8907L34.4374 53.4789L36.0191 53.564L35.5355 62.551L30.7784 62.295Z" fill="#0077FF"/>
<path d="M23.756 54.4392C23.9213 54.52 24.0529 54.6334 24.1507 54.7792C24.2414 54.9216 24.2946 55.0768 24.3104 55.2448C24.3226 55.42 24.2883 55.5902 24.2075 55.7555C24.1266 55.9208 24.015 56.0488 23.8727 56.1394C23.7268 56.2373 23.5699 56.2941 23.4019 56.3099C23.2267 56.3221 23.0564 56.2878 22.8911 56.207C22.7259 56.1261 22.5979 56.0145 22.5072 55.8722C22.4093 55.7263 22.3543 55.5658 22.342 55.3906C22.3263 55.2226 22.3588 55.0559 22.4397 54.8906C22.5206 54.7254 22.6339 54.5938 22.7798 54.4959C22.9221 54.4052 23.0809 54.3538 23.2561 54.3415C23.4241 54.3258 23.5907 54.3583 23.756 54.4392Z" fill="#0077FF"/>
<path d="M17.0675 50.1004C17.4839 49.7629 17.7764 49.3869 17.9449 48.9723C18.1135 48.5577 18.1558 48.127 18.0718 47.6802C17.9765 47.2323 17.7526 46.7908 17.4 46.3557C17.0424 45.9144 16.6569 45.6038 16.2434 45.424C15.8238 45.2492 15.3937 45.2013 14.9531 45.2803C14.5126 45.3593 14.0841 45.5675 13.6677 45.905L9.67737 49.1386L8.68009 47.9079L12.717 44.6366C13.3323 44.1379 13.9864 43.8396 14.6792 43.7415C15.3658 43.6485 16.0411 43.7448 16.7051 44.0305C17.3628 44.3212 17.9612 44.7991 18.5001 45.4642C19.034 46.123 19.3775 46.8074 19.5307 47.5174C19.6726 48.2261 19.6269 48.9067 19.3936 49.5591C19.1541 50.2166 18.7267 50.7946 18.1113 51.2933L14.0744 54.5646L13.0772 53.334L17.0675 50.1004Z" fill="#0077FF"/>
<path d="M6.01561 39.7052C5.83704 39.0574 5.79861 38.4664 5.90031 37.9321C5.99988 37.3902 6.22283 36.9346 6.56914 36.5653C6.90562 36.1904 7.3438 35.9285 7.88367 35.7797C8.42353 35.6309 8.93784 35.6302 9.42659 35.7777C9.90549 35.9195 10.3265 36.1976 10.6897 36.612C11.0508 37.0187 11.3206 37.5459 11.4991 38.1938L12.5737 42.0924L11.2549 42.4559L10.1962 38.6151C10.0517 38.0907 9.81177 37.717 9.47648 37.4941C9.13907 37.2635 8.75056 37.2087 8.31095 37.3299C7.87134 37.4511 7.56574 37.6971 7.39414 38.0681C7.22041 38.4313 7.20582 38.8751 7.35037 39.3996L8.36757 43.0899L7.41591 42.6178L15.5371 40.3794L15.958 41.9064L7.28152 44.298L6.01561 39.7052Z" fill="#0077FF"/>
<path d="M11.2398 30.5782C11.2163 30.7607 11.1512 30.9217 11.0445 31.0613C10.9389 31.1929 10.809 31.2931 10.655 31.362C10.493 31.4299 10.3208 31.4521 10.1383 31.4286C9.95577 31.4052 9.79873 31.3406 9.66713 31.235C9.5276 31.1283 9.42338 30.9979 9.35447 30.8439C9.28659 30.6819 9.26438 30.5096 9.28785 30.3271C9.31133 30.1446 9.37589 29.9876 9.48155 29.856C9.58822 29.7165 9.72255 29.6128 9.88454 29.5449C10.0386 29.476 10.2069 29.4533 10.3894 29.4767C10.5719 29.5002 10.7329 29.5653 10.8724 29.672C11.004 29.7776 11.1037 29.9114 11.1716 30.0734C11.2405 30.2275 11.2632 30.3957 11.2398 30.5782Z" fill="#0077FF"/>
<path d="M13.1979 22.8604C13.6505 23.1476 14.1001 23.3051 14.5468 23.3328C14.9935 23.3604 15.4153 23.2633 15.812 23.0413C16.2062 22.8082 16.5534 22.4553 16.8534 21.9825C17.1578 21.5029 17.3293 21.0385 17.368 20.5893C17.4 20.1359 17.3083 19.7129 17.0931 19.3205C16.8778 18.9281 16.5439 18.5883 16.0914 18.3011L11.7549 15.5491L12.6037 14.2116L16.9908 16.9958C17.6595 17.4202 18.1507 17.9451 18.4644 18.5705C18.7714 19.1917 18.8952 19.8625 18.836 20.5829C18.77 21.299 18.5077 22.0185 18.049 22.7412C17.5946 23.4572 17.0553 24.0009 16.4312 24.3723C15.8046 24.7326 15.1449 24.9061 14.4521 24.8929C13.7526 24.8753 13.0685 24.6544 12.3998 24.23L8.0127 21.4459L8.86145 20.1084L13.1979 22.8604Z" fill="#0077FF"/>
<path d="M19.5138 9.06974C20.0701 8.6927 20.6175 8.46661 21.1561 8.39147C21.7014 8.31184 22.2044 8.37676 22.6653 8.58624C23.1284 8.7846 23.517 9.11555 23.8312 9.5791C24.1454 10.0427 24.3111 10.5295 24.3284 11.0397C24.3477 11.5388 24.2194 12.0269 23.9435 12.5038C23.6742 12.9763 23.2615 13.401 22.7052 13.7781L19.3577 16.0471L18.5902 14.9147L21.888 12.6794C22.3383 12.3741 22.6152 12.027 22.7187 11.6379C22.8289 11.2443 22.756 10.8588 22.5002 10.4813C22.2443 10.1038 21.9132 9.89338 21.5068 9.8499C21.107 9.80194 20.682 9.93057 20.2317 10.2358L17.063 12.3836L17.2047 11.3307L21.9312 18.3039L20.62 19.1926L15.5703 11.7427L19.5138 9.06974Z" fill="#0077FF"/>
<path d="M29.8648 11.0917C29.6843 11.1272 29.511 11.1164 29.3449 11.0594C29.1866 11.0008 29.0504 10.9094 28.9363 10.7851C28.8206 10.6529 28.745 10.4965 28.7095 10.316C28.6741 10.1354 28.6856 9.96602 28.7442 9.80775C28.8012 9.64164 28.8919 9.50152 29.0162 9.3874C29.1484 9.27173 29.3047 9.19616 29.4853 9.16067C29.6658 9.12518 29.8352 9.13673 29.9935 9.1953C30.1596 9.25234 30.3005 9.34694 30.4162 9.47911C30.5303 9.60344 30.6051 9.75587 30.6406 9.93642C30.6761 10.117 30.6653 10.2903 30.6083 10.4564C30.5497 10.6147 30.4543 10.7516 30.3222 10.8673C30.1978 10.9814 30.0454 11.0562 29.8648 11.0917Z" fill="#0077FF"/>
<path d="M37.7936 10.4901C37.6665 11.0108 37.6615 11.4872 37.7784 11.9192C37.8954 12.3512 38.1226 12.7196 38.46 13.0242C38.807 13.323 39.2526 13.5387 39.7966 13.6715C40.3485 13.8061 40.8433 13.8198 41.2812 13.7125C41.721 13.5974 42.0923 13.3751 42.395 13.0455C42.6978 12.7158 42.9127 12.2906 43.0397 11.7699L44.257 6.78025L45.7959 7.15567L44.5644 12.2036C44.3767 12.9731 44.0368 13.6066 43.5449 14.1041C43.0548 14.594 42.4591 14.9262 41.7577 15.101C41.0582 15.2679 40.2927 15.25 39.461 15.0471C38.6372 14.8461 37.9494 14.5095 37.3976 14.0373C36.8555 13.5592 36.4797 12.9899 36.2702 12.3294C36.0627 11.6612 36.0528 10.9424 36.2405 10.1729L37.472 5.12499L39.0109 5.50041L37.7936 10.4901Z" fill="#0077FF"/>
<path d="M52.8971 12.0924C53.431 12.5005 53.8189 12.948 54.0609 13.435C54.3093 13.9269 54.4072 14.4246 54.3546 14.9281C54.3132 15.4302 54.1225 15.9037 53.7825 16.3486C53.4424 16.7935 53.0332 17.105 52.5547 17.2831C52.0875 17.4597 51.584 17.4927 51.0442 17.3822C50.5107 17.2765 49.977 17.0197 49.4431 16.6116L46.2301 14.156L47.0608 13.0691L50.2261 15.4883C50.6584 15.8186 51.0754 15.9712 51.4772 15.9461C51.8854 15.9258 52.228 15.7345 52.5049 15.3722C52.7818 15.0099 52.8764 14.6291 52.7889 14.2299C52.7076 13.8355 52.4509 13.4732 52.0187 13.1429L48.9773 10.8184L50.0207 10.619L44.9054 17.3121L43.6468 16.3502L49.112 9.19951L52.8971 12.0924Z" fill="#0077FF"/>
<path d="M54.2713 22.5324C54.1799 22.3728 54.1345 22.2051 54.1353 22.0295C54.1401 21.8608 54.1831 21.7025 54.2643 21.5545C54.3524 21.4026 54.4763 21.2809 54.636 21.1894C54.7956 21.098 54.9598 21.0546 55.1285 21.0594C55.3041 21.0602 55.4659 21.1012 55.6139 21.1824C55.7658 21.2705 55.8875 21.3944 55.9789 21.5541C56.0704 21.7137 56.1138 21.8779 56.109 22.0466C56.1082 22.2222 56.0637 22.386 55.9756 22.5379C55.8944 22.6859 55.774 22.8056 55.6143 22.897C55.4547 22.9885 55.287 23.0338 55.1114 23.033C54.9427 23.0283 54.7824 22.9818 54.6305 22.8937C54.4825 22.8125 54.3628 22.6921 54.2713 22.5324Z" fill="#0077FF"/>
<path d="M57.3738 29.848C56.8397 29.8928 56.3863 30.0393 56.0138 30.2873C55.6412 30.5354 55.3641 30.8677 55.1823 31.2844C55.0092 31.7084 54.946 32.1994 54.9929 32.7574C55.0404 33.3234 55.1846 33.797 55.4253 34.1782C55.674 34.5587 56.0027 34.8402 56.4114 35.0227C56.8201 35.2051 57.2915 35.2739 57.8257 35.2291L62.9436 34.7993L63.0762 36.3777L57.8984 36.8125C57.1092 36.8788 56.4006 36.7577 55.7726 36.4491C55.1525 36.1399 54.6483 35.6805 54.2599 35.0709C53.8795 34.4606 53.6535 33.7289 53.5819 32.8759C53.5109 32.0309 53.6117 31.2718 53.8844 30.5986C54.1656 29.9327 54.5862 29.3957 55.146 28.9874C55.7137 28.5784 56.3922 28.3408 57.1815 28.2746L62.3592 27.8398L62.4918 29.4182L57.3738 29.848Z" fill="#0077FF"/>
<path d="M60.6808 44.651C60.4654 45.2875 60.1658 45.7984 59.782 46.1837C59.3956 46.5766 58.9555 46.8288 58.4617 46.9403C57.9729 47.062 57.4632 47.0331 56.9328 46.8536C56.4024 46.674 55.9761 46.3862 55.6542 45.99C55.3372 45.604 55.1445 45.1377 55.0762 44.5909C55.0054 44.0517 55.0777 43.4638 55.2931 42.8273L56.5897 38.9968L57.8854 39.4354L56.6081 43.2091C56.4337 43.7244 56.4228 44.1683 56.5754 44.5409C56.7254 44.9211 57.0164 45.1843 57.4483 45.3305C57.8803 45.4767 58.2713 45.4443 58.6214 45.2334C58.9689 45.0301 59.2299 44.6708 59.4043 44.1555L60.6316 40.5296L61.1548 41.4542L53.1755 38.7533L53.6833 37.2529L62.2082 40.1385L60.6808 44.651Z" fill="#0077FF"/>
<path d="M51.2205 49.2838C51.3426 49.1462 51.4871 49.0497 51.6538 48.9944C51.8152 48.9452 51.9789 48.9354 52.1451 48.9652C52.3172 49.0003 52.472 49.0789 52.6096 49.201C52.7472 49.3231 52.8407 49.4649 52.89 49.6263C52.9452 49.793 52.958 49.9594 52.9282 50.1256C52.8931 50.2977 52.8145 50.4525 52.6924 50.5901C52.5703 50.7277 52.4285 50.8212 52.2671 50.8705C52.1004 50.9257 51.931 50.9358 51.7589 50.9008C51.5928 50.871 51.4409 50.795 51.3033 50.6729C51.1657 50.5508 51.0692 50.4063 51.014 50.2396C50.9647 50.0782 50.9576 49.9115 50.9926 49.7394C51.0224 49.5733 51.0984 49.4214 51.2205 49.2838Z" fill="#0077FF"/>
</svg>
